<svg width="192" height="39" viewBox="0 0 192 39" fill="none" xmlns="http://www.w3.org/2000/svg">
<path d="M15.3003 0.246094C15.4826 0.740885 15.7039 1.48307 15.9644 2.47266C16.2248 3.44922 16.5112 4.58203 16.8237 5.87109C17.1362 7.16016 17.4618 8.5599 17.8003 10.0703C18.1519 11.5807 18.4969 13.1172 18.8354 14.6797C19.187 16.2422 19.5256 17.7852 19.8511 19.3086C20.1896 20.832 20.5021 22.2448 20.7886 23.5469C21.075 24.849 21.3289 26.0078 21.5503 27.0234C21.7847 28.026 21.967 28.7943 22.0972 29.3281C22.3836 28.599 22.7157 27.7005 23.0933 26.6328C23.4839 25.5651 23.9006 24.3997 24.3433 23.1367C24.799 21.8607 25.2677 20.513 25.7495 19.0938C26.2443 17.6615 26.7391 16.2227 27.2339 14.7773C27.7417 13.319 28.2495 11.8802 28.7573 10.4609C29.2651 9.04167 29.7534 7.70052 30.2222 6.4375C30.6909 5.16146 31.1336 3.99609 31.5503 2.94141C31.98 1.8737 32.3641 0.97526 32.7026 0.246094L34.3042 0.441406C34.0698 1.26172 33.8354 2.21875 33.6011 3.3125C33.3667 4.39323 33.1388 5.57161 32.9175 6.84766C32.7091 8.11068 32.5073 9.44531 32.312 10.8516C32.1167 12.2448 31.9474 13.651 31.8042 15.0703C31.661 16.4896 31.5438 17.8958 31.4526 19.2891C31.3745 20.6823 31.3354 22.0104 31.3354 23.2734C31.3354 25.7344 31.5112 27.6029 31.8628 28.8789C32.2144 30.1549 32.7612 30.793 33.5034 30.793C33.8289 30.793 34.1414 30.6628 34.4409 30.4023C34.7534 30.1419 35.0789 29.7513 35.4175 29.2305C35.769 28.7096 36.1401 28.0651 36.5308 27.2969C36.9344 26.5156 37.3901 25.6172 37.8979 24.6016L38.0933 24.1914L38.894 24.7969L38.6987 25.207C38.0477 26.5091 37.4618 27.6484 36.9409 28.625C36.4331 29.5885 35.9383 30.3958 35.4565 31.0469C34.9878 31.6979 34.5125 32.1862 34.0308 32.5117C33.562 32.8372 33.0477 33 32.4878 33C31.7065 33 31.0555 32.8112 30.5347 32.4336C30.0138 32.043 29.5907 31.4961 29.2651 30.793C28.9526 30.0768 28.7248 29.2109 28.5815 28.1953C28.4513 27.1797 28.3862 26.0339 28.3862 24.7578C28.3862 23.3646 28.4578 21.9062 28.6011 20.3828C28.7443 18.8464 28.9136 17.3555 29.1089 15.9102C29.3172 14.4648 29.5256 13.1302 29.7339 11.9062C29.9552 10.6693 30.144 9.64714 30.3003 8.83984L21.4917 33.9961L19.8901 33.6055C19.8901 33.332 19.8055 32.7526 19.6362 31.8672C19.467 30.9688 19.2456 29.888 18.9722 28.625C18.6987 27.349 18.3862 25.9492 18.0347 24.4258C17.6961 22.8893 17.3446 21.3464 16.98 19.7969C16.1336 16.151 15.1701 12.1016 14.0894 7.64844C14.1284 8.58594 14.174 9.52995 14.2261 10.4805C14.2651 11.3008 14.2977 12.1797 14.3237 13.1172C14.3628 14.0417 14.3823 14.9076 14.3823 15.7148C14.3823 18.0716 14.2456 20.1615 13.9722 21.9844C13.7118 23.8073 13.3537 25.3958 12.8979 26.75C12.4422 28.0911 11.9084 29.224 11.2964 30.1484C10.6844 31.0729 10.0334 31.8151 9.34326 32.375C8.65316 32.9349 7.94352 33.3385 7.21436 33.5859C6.49821 33.8333 5.79508 33.957 5.10498 33.957C4.41488 33.957 3.77035 33.8398 3.17139 33.6055C2.55941 33.3841 2.03206 33.0716 1.58936 32.668C1.13363 32.2513 0.775553 31.7695 0.515137 31.2227C0.241699 30.6628 0.10498 30.0573 0.10498 29.4062C0.10498 28.638 0.235189 27.9023 0.495605 27.1992C0.743001 26.4961 1.09456 25.8385 1.55029 25.2266C1.993 24.6016 2.52035 24.0221 3.13232 23.4883C3.7443 22.9544 4.40186 22.4596 5.10498 22.0039L5.69092 22.6094C5.19613 22.9609 4.7404 23.3581 4.32373 23.8008C3.90706 24.2305 3.54899 24.6992 3.24951 25.207C2.95003 25.7018 2.71566 26.2227 2.54639 26.7695C2.37712 27.3034 2.29248 27.8438 2.29248 28.3906C2.29248 28.8984 2.37712 29.3737 2.54639 29.8164C2.70264 30.2591 2.93701 30.6497 3.24951 30.9883C3.54899 31.3268 3.91357 31.5938 4.34326 31.7891C4.75993 31.9844 5.23519 32.082 5.76904 32.082C6.31592 32.082 6.88232 31.9714 7.46826 31.75C8.0542 31.5156 8.62061 31.138 9.16748 30.6172C9.72738 30.0833 10.2547 29.3867 10.7495 28.5273C11.2573 27.6549 11.6935 26.5872 12.0581 25.3242C12.4357 24.0482 12.7352 22.5573 12.9565 20.8516C13.1779 19.1458 13.2886 17.1797 13.2886 14.9531C13.2886 14.3151 13.269 13.5664 13.23 12.707C13.2039 11.8477 13.1584 10.9492 13.0933 10.0117C13.0412 9.07422 12.9761 8.13672 12.8979 7.19922C12.8198 6.2487 12.7352 5.36979 12.644 4.5625C12.5659 3.74219 12.4748 3.02604 12.3706 2.41406C12.2795 1.78906 12.1883 1.33333 12.0972 1.04688L15.3003 0.246094ZM60.2769 0.207031C61.631 0.207031 62.8159 0.382812 63.8315 0.734375C64.8602 1.08594 65.7196 1.57422 66.4097 2.19922C67.0998 2.8112 67.6141 3.53385 67.9526 4.36719C68.3042 5.1875 68.48 6.06641 68.48 7.00391C68.48 8.03255 68.3042 9.02214 67.9526 9.97266C67.6141 10.9102 67.1388 11.8021 66.5269 12.6484C65.9279 13.4948 65.2183 14.2891 64.3979 15.0312C63.5776 15.7734 62.6987 16.4505 61.7612 17.0625C60.8237 17.6745 59.8472 18.2214 58.8315 18.7031C57.8289 19.1849 56.8328 19.5885 55.8433 19.9141C56.5464 20.5391 57.1844 21.2682 57.7573 22.1016C58.3302 22.9219 58.8771 23.8008 59.3979 24.7383C59.9188 25.6628 60.4331 26.6133 60.9409 27.5898C61.4487 28.5664 61.9826 29.5169 62.5425 30.4414C63.1024 31.3529 63.7078 32.2188 64.3589 33.0391C65.0229 33.8594 65.7716 34.5755 66.605 35.1875C67.4513 35.8125 68.3953 36.3008 69.437 36.6523C70.4787 37.0169 71.6701 37.1992 73.0112 37.1992L73.0894 38C72.9201 38.0391 72.7248 38.0716 72.5034 38.0977C72.3211 38.1237 72.0933 38.1432 71.8198 38.1562C71.5464 38.1823 71.2339 38.1953 70.8823 38.1953C69.1896 38.1953 67.7118 38 66.4487 37.6094C65.1857 37.2318 64.0854 36.7109 63.1479 36.0469C62.2235 35.3958 61.4357 34.6341 60.7847 33.7617C60.1336 32.9023 59.5607 31.9909 59.0659 31.0273C58.5841 30.0508 58.161 29.0612 57.7964 28.0586C57.4318 27.043 57.0672 26.0664 56.7026 25.1289C56.3511 24.1784 55.9735 23.2995 55.5698 22.4922C55.1792 21.6719 54.7104 20.9753 54.1636 20.4023C53.9032 20.4674 53.6427 20.5195 53.3823 20.5586C53.1349 20.5977 52.8875 20.6367 52.6401 20.6758C52.6271 21.6133 52.6076 22.4271 52.5815 23.1172C52.5685 23.7943 52.549 24.3932 52.5229 24.9141C52.4969 25.4219 52.4644 25.8711 52.4253 26.2617C52.3862 26.6523 52.3407 27.0299 52.2886 27.3945C52.1453 28.4102 51.937 29.276 51.6636 29.9922C51.3901 30.6953 51.0581 31.2747 50.6675 31.7305C50.2769 32.1732 49.8276 32.4987 49.3198 32.707C48.825 32.9023 48.2782 33 47.6792 33C46.8328 33 46.0386 32.7526 45.2964 32.2578C44.5672 31.763 43.9357 31.0273 43.4019 30.0508C42.868 29.0742 42.4448 27.8633 42.1323 26.418C41.8328 24.9727 41.6831 23.2995 41.6831 21.3984C41.6831 19.4062 41.8979 17.4987 42.3276 15.6758C42.7573 13.8398 43.3628 12.1406 44.144 10.5781C44.9383 9.0026 45.8953 7.57682 47.0151 6.30078C48.1349 5.02474 49.3784 3.9375 50.7456 3.03906C52.1258 2.1276 53.6167 1.43099 55.2183 0.949219C56.8328 0.454427 58.519 0.207031 60.2769 0.207031ZM48.2847 19.1914C48.2847 18.8529 48.4149 18.5664 48.6753 18.332C48.9487 18.0846 49.3133 17.9219 49.769 17.8438C49.743 16.5677 49.7104 15.4023 49.6714 14.3477C49.6323 13.293 49.5998 12.3815 49.5737 11.6133C49.5347 10.7148 49.5021 9.90755 49.4761 9.19141C49.5672 9.11328 49.6714 9.04818 49.7886 8.99609C49.8927 8.94401 50.0164 8.89844 50.1597 8.85938C50.3029 8.82031 50.4787 8.80078 50.687 8.80078C51.286 8.80078 51.7677 8.91146 52.1323 9.13281C52.4969 9.34115 52.6792 9.69922 52.6792 10.207C52.6792 11.7435 52.6792 13.1693 52.6792 14.4844C52.6792 15.7865 52.6662 17.0104 52.6401 18.1562C53.0568 18.2734 53.4539 18.4232 53.8315 18.6055C54.2222 18.7747 54.5868 18.9701 54.9253 19.1914C56.1232 18.8659 57.3276 18.3971 58.5386 17.7852C59.7495 17.1732 60.8368 16.3984 61.8003 15.4609C62.7769 14.5104 63.5646 13.3906 64.1636 12.1016C64.7756 10.7995 65.0815 9.30208 65.0815 7.60938C65.0815 6.5026 64.9253 5.55859 64.6128 4.77734C64.3133 3.99609 63.9032 3.35807 63.3823 2.86328C62.8615 2.35547 62.243 1.98438 61.5269 1.75C60.8237 1.51562 60.075 1.39844 59.2808 1.39844C57.9526 1.39844 56.644 1.59375 55.355 1.98438C54.0789 2.36198 52.868 2.94141 51.7222 3.72266C50.5894 4.50391 49.5412 5.49349 48.5776 6.69141C47.6271 7.88932 46.8003 9.30208 46.0972 10.9297C45.4071 12.5573 44.8667 14.4062 44.4761 16.4766C44.0854 18.5469 43.8901 20.8516 43.8901 23.3906C43.8901 24.4974 43.9422 25.5716 44.0464 26.6133C44.1636 27.6419 44.3524 28.5599 44.6128 29.3672C44.8732 30.1615 45.2183 30.7995 45.6479 31.2812C46.0907 31.763 46.6375 32.0039 47.2886 32.0039C47.6401 32.0039 47.9722 31.9323 48.2847 31.7891C48.5972 31.6458 48.8706 31.3529 49.105 30.9102C49.3394 30.4544 49.5282 29.8099 49.6714 28.9766C49.8146 28.1302 49.8862 27.0039 49.8862 25.5977C49.8862 25.0898 49.8862 24.6406 49.8862 24.25C49.8862 23.8464 49.8862 23.4622 49.8862 23.0977C49.8862 22.7201 49.8797 22.3424 49.8667 21.9648C49.8667 21.5872 49.8602 21.1706 49.8472 20.7148C49.3524 20.5977 48.9683 20.4089 48.6948 20.1484C48.4214 19.888 48.2847 19.569 48.2847 19.1914ZM49.2808 19.1914C49.2808 19.3216 49.3003 19.4323 49.3394 19.5234C49.3914 19.6146 49.5477 19.6927 49.8081 19.7578V18.8398C49.4565 18.918 49.2808 19.0352 49.2808 19.1914ZM52.6401 19.6797C52.7443 19.6797 52.842 19.6732 52.9331 19.6602C53.0373 19.6471 53.1414 19.6276 53.2456 19.6016C53.1414 19.5365 53.0373 19.4779 52.9331 19.4258C52.842 19.3737 52.7443 19.3281 52.6401 19.2891V19.6797ZM102.457 9.79688C102.457 11.125 102.528 12.4206 102.671 13.6836C102.815 14.9336 102.971 16.1836 103.14 17.4336C103.322 18.6836 103.485 19.9531 103.628 21.2422C103.785 22.5312 103.863 23.8789 103.863 25.2852C103.863 26.6003 103.687 27.7982 103.335 28.8789C102.984 29.9466 102.424 30.8646 101.656 31.6328C100.888 32.388 99.8979 32.9674 98.687 33.3711C97.4891 33.7878 96.0438 33.9961 94.3511 33.9961C93.2313 33.9961 92.1636 33.8398 91.1479 33.5273C90.1323 33.2148 89.2404 32.7786 88.4722 32.2188C87.7039 31.6589 87.092 30.9883 86.6362 30.207C86.1805 29.4258 85.9526 28.5599 85.9526 27.6094C85.9526 26.9062 86.0633 26.2747 86.2847 25.7148C86.519 25.1549 86.812 24.6602 87.1636 24.2305C87.5282 23.7878 87.9253 23.4102 88.355 23.0977C88.7977 22.7852 89.2274 22.5247 89.644 22.3164C90.0607 22.1081 90.4383 21.9453 90.7769 21.8281C91.1154 21.7109 91.3693 21.6328 91.5386 21.5938L91.9487 22.3945C91.6493 22.5508 91.3107 22.7656 90.9331 23.0391C90.5685 23.2995 90.2235 23.638 89.8979 24.0547C89.5724 24.4583 89.299 24.9531 89.0776 25.5391C88.8563 26.125 88.7456 26.8151 88.7456 27.6094C88.7456 28.4557 88.8888 29.2174 89.1753 29.8945C89.4618 30.5586 89.8589 31.125 90.3667 31.5938C90.8875 32.0495 91.4995 32.401 92.2026 32.6484C92.9188 32.8828 93.7 33 94.5464 33C95.4188 33 96.2456 32.8958 97.0269 32.6875C97.8211 32.4661 98.5177 32.1016 99.1167 31.5938C99.7157 31.0859 100.191 30.4154 100.542 29.582C100.894 28.7487 101.07 27.7135 101.07 26.4766C101.07 25.2396 100.998 24.0026 100.855 22.7656C100.725 21.5156 100.582 20.2656 100.425 19.0156C100.269 17.7526 100.119 16.4896 99.9761 15.2266C99.8459 13.9505 99.7808 12.6615 99.7808 11.3594C99.7808 10.2266 99.8394 9.19141 99.9565 8.25391C100.087 7.30339 100.282 6.40495 100.542 5.55859C99.5138 5.40234 98.4591 5.22005 97.3784 5.01172C96.2977 4.79036 95.2365 4.58203 94.1948 4.38672C93.1662 4.19141 92.1831 4.02865 91.2456 3.89844C90.3211 3.75521 89.4878 3.68359 88.7456 3.68359C87.743 3.68359 86.9097 3.76823 86.2456 3.9375C85.5815 4.09375 85.0477 4.30859 84.644 4.58203C84.2404 4.85547 83.9604 5.17448 83.8042 5.53906C83.6349 5.89062 83.5503 6.26823 83.5503 6.67188C83.5503 7.07552 83.6479 7.44661 83.8433 7.78516C84.0256 8.1237 84.2925 8.42318 84.644 8.68359C84.9956 8.93099 85.4123 9.1263 85.894 9.26953C86.3888 9.41276 86.9357 9.48438 87.5347 9.48438C88.1987 9.48438 88.7847 9.41276 89.2925 9.26953C89.8133 9.11328 90.256 8.94401 90.6206 8.76172C91.0503 8.55339 91.4279 8.3125 91.7534 8.03906L92.144 8.87891C91.7404 9.17839 91.2977 9.44531 90.8159 9.67969C90.3993 9.88802 89.911 10.0768 89.3511 10.2461C88.8042 10.4023 88.1987 10.4805 87.5347 10.4805C86.6623 10.4805 85.8875 10.3633 85.2104 10.1289C84.5464 9.89453 83.9865 9.58203 83.5308 9.19141C83.075 8.78776 82.73 8.31901 82.4956 7.78516C82.2612 7.2513 82.144 6.6849 82.144 6.08594C82.144 5.44792 82.2547 4.82943 82.4761 4.23047C82.6844 3.63151 83.0425 3.09766 83.5503 2.62891C84.0451 2.16016 84.7026 1.78906 85.5229 1.51562C86.3433 1.22917 87.3524 1.08594 88.5503 1.08594C89.6571 1.08594 90.7638 1.17708 91.8706 1.35938C92.9904 1.52865 94.0907 1.74349 95.1714 2.00391C96.2651 2.2513 97.3263 2.52474 98.355 2.82422C99.3966 3.11068 100.393 3.37109 101.343 3.60547C101.903 2.57682 102.6 1.75651 103.433 1.14453C104.266 0.519531 105.171 0.207031 106.148 0.207031C106.565 0.207031 106.936 0.278646 107.261 0.421875C107.587 0.552083 107.86 0.727865 108.082 0.949219C108.303 1.17057 108.466 1.43099 108.57 1.73047C108.687 2.01693 108.746 2.32292 108.746 2.64844C108.746 3.19531 108.615 3.67057 108.355 4.07422C108.108 4.46484 107.763 4.79688 107.32 5.07031C106.877 5.33073 106.356 5.52604 105.757 5.65625C105.158 5.77344 104.514 5.83203 103.824 5.83203C103.667 5.83203 103.505 5.83203 103.335 5.83203C103.179 5.83203 103.023 5.81901 102.867 5.79297C102.75 6.23568 102.652 6.80859 102.574 7.51172C102.496 8.21484 102.457 8.97656 102.457 9.79688ZM106.148 1.28125C105.562 1.28125 105.022 1.49609 104.527 1.92578C104.032 2.34245 103.622 3.05859 103.296 4.07422C103.7 4.13932 104.091 4.19141 104.468 4.23047C104.846 4.26953 105.204 4.28906 105.542 4.28906C105.894 4.28906 106.194 4.24349 106.441 4.15234C106.701 4.04818 106.91 3.91797 107.066 3.76172C107.222 3.60547 107.339 3.42969 107.417 3.23438C107.496 3.03906 107.535 2.84375 107.535 2.64844C107.535 2.27083 107.404 1.95182 107.144 1.69141C106.884 1.41797 106.552 1.28125 106.148 1.28125ZM111.75 24.6016L111.945 24.1914C112.14 23.8008 112.316 23.3971 112.472 22.9805C112.641 22.5638 112.785 22.1732 112.902 21.8086C113.019 21.431 113.11 21.099 113.175 20.8125C113.24 20.513 113.286 20.2852 113.312 20.1289C112.973 20.0898 112.648 20.0052 112.335 19.875C112.023 19.7448 111.75 19.569 111.515 19.3477C111.281 19.1263 111.098 18.8659 110.968 18.5664C110.825 18.2669 110.753 17.9284 110.753 17.5508C110.753 17.2513 110.806 16.9844 110.91 16.75C111.014 16.5156 111.157 16.3203 111.339 16.1641C111.509 16.0078 111.704 15.8906 111.925 15.8125C112.134 15.7214 112.355 15.6758 112.589 15.6758C112.902 15.6758 113.175 15.7409 113.41 15.8711C113.644 16.0013 113.839 16.1771 113.996 16.3984C114.152 16.6068 114.269 16.8542 114.347 17.1406C114.425 17.4141 114.464 17.7005 114.464 18C114.829 18 115.22 17.9479 115.636 17.8438C116.066 17.7396 116.496 17.6289 116.925 17.5117C117.355 17.3815 117.778 17.2643 118.195 17.1602C118.611 17.056 118.996 17.0039 119.347 17.0039C119.647 17.0039 119.888 17.069 120.07 17.1992C120.252 17.3164 120.343 17.5182 120.343 17.8047C120.343 18.013 120.278 18.3581 120.148 18.8398C120.031 19.3216 119.881 19.8815 119.699 20.5195C119.516 21.1576 119.315 21.8542 119.093 22.6094C118.885 23.3516 118.69 24.1068 118.507 24.875C118.325 25.6302 118.169 26.3659 118.039 27.082C117.921 27.7982 117.863 28.4362 117.863 28.9961C117.863 29.6992 117.941 30.1745 118.097 30.4219C118.253 30.6693 118.533 30.793 118.937 30.793C119.106 30.793 119.315 30.7214 119.562 30.5781C119.822 30.4219 120.135 30.1289 120.5 29.6992C120.864 29.2565 121.294 28.6315 121.789 27.8242C122.296 27.0039 122.882 25.9297 123.546 24.6016L123.742 24.1914L124.542 24.7969L124.347 25.207C123.566 26.7695 122.869 28.0521 122.257 29.0547C121.645 30.0573 121.079 30.8516 120.558 31.4375C120.05 32.0234 119.569 32.4336 119.113 32.668C118.657 32.8893 118.201 33 117.746 33C116.977 33 116.352 32.707 115.871 32.1211C115.389 31.5352 115.148 30.6302 115.148 29.4062C115.148 28.7422 115.239 28.0521 115.421 27.3359C115.604 26.6198 115.832 25.9102 116.105 25.207C116.378 24.4909 116.684 23.7878 117.023 23.0977C117.361 22.4076 117.681 21.7565 117.98 21.1445C118.292 20.5195 118.572 19.9401 118.82 19.4062C119.067 18.8724 119.243 18.4036 119.347 18L119.23 17.8828C119.022 17.8828 118.742 17.9935 118.39 18.2148C118.039 18.4362 117.641 18.6901 117.199 18.9766C116.769 19.25 116.307 19.5104 115.812 19.7578C115.317 20.0052 114.816 20.1549 114.308 20.207C114.282 20.3893 114.223 20.6562 114.132 21.0078C114.054 21.3594 113.944 21.75 113.8 22.1797C113.657 22.6094 113.494 23.0521 113.312 23.5078C113.13 23.9635 112.941 24.3932 112.746 24.7969L112.55 25.207L111.75 24.6016ZM112.707 16.7695C112.589 16.7695 112.492 16.8086 112.414 16.8867C112.335 16.9648 112.296 17.056 112.296 17.1602C112.296 17.3164 112.335 17.4531 112.414 17.5703C112.492 17.6745 112.589 17.7656 112.707 17.8438C112.824 17.9089 112.941 17.9609 113.058 18C113.188 18.026 113.299 18.0391 113.39 18.0391C113.39 17.6745 113.332 17.375 113.214 17.1406C113.097 16.8932 112.928 16.7695 112.707 16.7695ZM139.578 28.1562C139.578 28.8984 139.643 29.5234 139.773 30.0312C139.903 30.5391 140.131 30.793 140.457 30.793C140.652 30.793 140.86 30.7018 141.082 30.5195C141.316 30.3242 141.583 30.0117 141.882 29.582C142.182 29.1523 142.52 28.599 142.898 27.9219C143.289 27.2318 143.731 26.3919 144.226 25.4023L144.812 24.1914L145.613 24.7969L145.027 26.0078C144.48 27.1016 143.966 28.0846 143.484 28.957C143.015 29.8164 142.566 30.5456 142.136 31.1445C141.707 31.7435 141.283 32.2057 140.867 32.5312C140.463 32.8438 140.059 33 139.656 33C139.226 33 138.861 32.8828 138.562 32.6484C138.276 32.4141 138.035 32.0951 137.839 31.6914C137.644 31.2747 137.494 30.7995 137.39 30.2656C137.286 29.7188 137.214 29.1393 137.175 28.5273C136.863 29.1523 136.518 29.7383 136.14 30.2852C135.763 30.819 135.365 31.2878 134.949 31.6914C134.545 32.0951 134.122 32.4141 133.679 32.6484C133.236 32.8828 132.794 33 132.351 33C131.7 33 131.069 32.8633 130.457 32.5898C129.845 32.3164 129.298 31.8997 128.816 31.3398C128.347 30.7799 127.97 30.0768 127.683 29.2305C127.397 28.3711 127.253 27.362 127.253 26.2031C127.253 24.849 127.429 23.612 127.781 22.4922C128.132 21.3594 128.608 20.3893 129.207 19.582C129.806 18.7617 130.496 18.1302 131.277 17.6875C132.058 17.2318 132.878 17.0039 133.738 17.0039C134.259 17.0039 134.74 17.1211 135.183 17.3555C135.626 17.5898 136.01 17.8763 136.335 18.2148C136.674 18.5404 136.954 18.8919 137.175 19.2695C137.397 19.6341 137.546 19.9466 137.625 20.207L137.859 18.3125C137.885 18.0651 138.002 17.8568 138.21 17.6875C138.432 17.5182 138.673 17.388 138.933 17.2969C139.194 17.1927 139.447 17.1211 139.695 17.082C139.942 17.0299 140.118 17.0039 140.222 17.0039C140.378 17.0039 140.483 17.0299 140.535 17.082C140.587 17.1341 140.613 17.2383 140.613 17.3945C140.613 17.5898 140.554 17.987 140.437 18.5859C140.333 19.1719 140.216 19.9271 140.085 20.8516C139.968 21.763 139.851 22.8372 139.734 24.0742C139.63 25.3112 139.578 26.6719 139.578 28.1562ZM137.429 23C137.429 22.401 137.338 21.8151 137.156 21.2422C136.973 20.6562 136.726 20.1419 136.414 19.6992C136.101 19.2435 135.736 18.8789 135.32 18.6055C134.916 18.332 134.486 18.1953 134.031 18.1953C133.471 18.1953 132.944 18.3581 132.449 18.6836C131.967 18.9961 131.544 19.4453 131.179 20.0312C130.828 20.6042 130.548 21.3008 130.339 22.1211C130.131 22.9284 130.027 23.8203 130.027 24.7969C130.027 26.75 130.333 28.2409 130.945 29.2695C131.557 30.2852 132.371 30.793 133.386 30.793C133.829 30.793 134.285 30.6172 134.753 30.2656C135.235 29.901 135.671 29.3867 136.062 28.7227C136.466 28.0456 136.791 27.2253 137.039 26.2617C137.299 25.2982 137.429 24.2109 137.429 23ZM152.093 18.1953C152.093 18.7031 152.048 19.3477 151.957 20.1289C151.878 20.9102 151.787 21.7826 151.683 22.7461C151.592 23.6966 151.501 24.7188 151.41 25.8125C151.332 26.9062 151.292 28.0195 151.292 29.1523C151.292 30.0638 151.442 30.6953 151.742 31.0469C152.041 31.3854 152.451 31.5547 152.972 31.5547C153.337 31.5547 153.708 31.457 154.085 31.2617C154.463 31.0664 154.821 30.7995 155.16 30.4609C155.511 30.1224 155.837 29.7188 156.136 29.25C156.436 28.7812 156.703 28.2734 156.937 27.7266C156.195 27.2708 155.57 26.5286 155.062 25.5C154.554 24.4583 154.3 23.1432 154.3 21.5547C154.3 20.7604 154.385 20.0898 154.554 19.543C154.723 18.9831 154.945 18.5273 155.218 18.1758C155.505 17.8242 155.824 17.5703 156.175 17.4141C156.527 17.2448 156.885 17.1602 157.25 17.1602C157.575 17.1602 157.894 17.2253 158.207 17.3555C158.519 17.4857 158.792 17.7005 159.027 18C159.261 18.2865 159.45 18.6706 159.593 19.1523C159.736 19.6341 159.808 20.2266 159.808 20.9297C159.808 21.8151 159.697 22.8112 159.476 23.918C159.268 25.0117 158.955 26.1055 158.539 27.1992C158.604 27.1992 158.669 27.2057 158.734 27.2188C158.799 27.2318 158.864 27.2383 158.929 27.2383C159.658 27.2383 160.277 27.0039 160.785 26.5352C161.306 26.0534 161.768 25.4089 162.171 24.6016L162.367 24.1914L163.167 24.7969L162.972 25.207C162.451 26.2227 161.82 26.9844 161.078 27.4922C160.348 27.987 159.593 28.2344 158.812 28.2344C158.695 28.2344 158.565 28.2279 158.421 28.2148C158.291 28.2018 158.194 28.1823 158.128 28.1562C157.829 28.8203 157.477 29.4453 157.074 30.0312C156.67 30.6172 156.221 31.1315 155.726 31.5742C155.244 32.0039 154.71 32.349 154.125 32.6094C153.552 32.8698 152.94 33 152.289 33C151.755 33 151.26 32.9219 150.804 32.7656C150.348 32.5964 149.945 32.2969 149.593 31.8672C149.255 31.4245 148.988 30.832 148.792 30.0898C148.597 29.3346 148.5 28.3711 148.5 27.1992C148.5 26.6784 148.513 26.099 148.539 25.4609C148.565 24.8099 148.604 24.1523 148.656 23.4883C148.695 22.8242 148.747 22.1732 148.812 21.5352C148.864 20.8971 148.923 20.3177 148.988 19.7969C149.053 19.263 149.118 18.8203 149.183 18.4688C149.248 18.1042 149.313 17.8698 149.378 17.7656C149.535 17.4792 149.795 17.2839 150.16 17.1797C150.524 17.0625 150.876 17.0039 151.214 17.0039C151.449 17.0039 151.651 17.0885 151.82 17.2578C152.002 17.4271 152.093 17.7396 152.093 18.1953ZM155.375 21.6328C155.375 22.8828 155.557 23.9375 155.921 24.7969C156.299 25.6432 156.768 26.2682 157.328 26.6719C157.614 25.8516 157.835 25.0052 157.992 24.1328C158.161 23.2474 158.246 22.401 158.246 21.5938C158.246 21.0729 158.2 20.6367 158.109 20.2852C158.031 19.9206 157.927 19.6276 157.796 19.4062C157.666 19.1849 157.51 19.0286 157.328 18.9375C157.158 18.8464 156.989 18.8008 156.82 18.8008C156.638 18.8008 156.462 18.8529 156.292 18.957C156.123 19.0482 155.967 19.2044 155.824 19.4258C155.694 19.6471 155.583 19.9401 155.492 20.3047C155.414 20.6693 155.375 21.112 155.375 21.6328ZM172.128 30.793C172.584 30.793 173.046 30.6758 173.515 30.4414C173.997 30.207 174.479 29.8424 174.96 29.3477C175.455 28.8529 175.963 28.2148 176.484 27.4336C177.005 26.6393 177.539 25.6953 178.085 24.6016L178.281 24.1914L179.082 24.7969L178.886 25.207C178.183 26.6003 177.48 27.7917 176.777 28.7812C176.087 29.7708 175.403 30.5781 174.726 31.2031C174.062 31.8281 173.404 32.2839 172.753 32.5703C172.102 32.8568 171.477 33 170.878 33C170.032 33 169.277 32.8242 168.613 32.4727C167.949 32.1211 167.389 31.6458 166.933 31.0469C166.477 30.4349 166.132 29.7318 165.898 28.9375C165.651 28.1302 165.527 27.2839 165.527 26.3984C165.527 24.9922 165.722 23.7161 166.113 22.5703C166.49 21.4115 166.998 20.4219 167.636 19.6016C168.287 18.7812 169.023 18.1432 169.843 17.6875C170.664 17.2318 171.516 17.0039 172.402 17.0039C173.3 17.0039 173.984 17.2318 174.453 17.6875C174.934 18.1432 175.175 18.7161 175.175 19.4062C175.175 20.0703 174.986 20.6953 174.609 21.2812C174.231 21.8542 173.717 22.4206 173.066 22.9805C172.428 23.5273 171.686 24.0742 170.839 24.6211C169.993 25.1549 169.101 25.7083 168.164 26.2812C168.255 26.9583 168.411 27.5768 168.632 28.1367C168.854 28.6836 169.134 29.1589 169.472 29.5625C169.811 29.9531 170.201 30.2591 170.644 30.4805C171.087 30.6888 171.582 30.793 172.128 30.793ZM172.734 19.9922C172.734 19.4714 172.591 19.0612 172.304 18.7617C172.031 18.4622 171.692 18.3125 171.289 18.3125C170.95 18.3125 170.592 18.4362 170.214 18.6836C169.837 18.918 169.492 19.3021 169.179 19.8359C168.867 20.3568 168.606 21.0273 168.398 21.8477C168.19 22.668 168.085 23.6641 168.085 24.8359V25.2852C168.528 25.0508 169.016 24.7448 169.55 24.3672C170.097 23.9766 170.605 23.5469 171.074 23.0781C171.542 22.6094 171.933 22.1146 172.246 21.5938C172.571 21.0599 172.734 20.526 172.734 19.9922ZM186.48 30.5195C186.714 30.5195 186.981 30.3698 187.281 30.0703C187.593 29.7578 187.925 29.3346 188.277 28.8008C188.628 28.2669 189 27.6419 189.39 26.9258C189.781 26.2096 190.184 25.4349 190.601 24.6016L190.796 24.1914L191.597 24.7969L191.402 25.207C190.712 26.5872 190.093 27.7721 189.546 28.7617C189.013 29.7383 188.511 30.5456 188.042 31.1836C187.574 31.8086 187.125 32.2708 186.695 32.5703C186.278 32.8568 185.848 33 185.406 33C184.82 33 184.312 32.8112 183.882 32.4336C183.466 32.043 183.114 31.3984 182.828 30.5C182.554 29.5885 182.352 28.3906 182.222 26.9062C182.079 25.4219 182.007 23.5859 182.007 21.3984C182.007 18.2995 182.138 15.6432 182.398 13.4297C182.658 11.2031 183.01 9.38021 183.453 7.96094C183.908 6.52865 184.429 5.48047 185.015 4.81641C185.614 4.13932 186.239 3.80078 186.89 3.80078C187.281 3.80078 187.606 3.96354 187.867 4.28906C188.14 4.60156 188.277 5.17448 188.277 6.00781C188.277 6.65885 188.225 7.40104 188.121 8.23438C188.016 9.06771 187.88 9.95964 187.71 10.9102C187.541 11.8607 187.339 12.8503 187.105 13.8789C186.871 14.8945 186.623 15.9102 186.363 16.9258C186.102 17.9284 185.835 18.918 185.562 19.8945C185.289 20.8581 185.022 21.763 184.761 22.6094C184.839 24.2109 184.924 25.526 185.015 26.5547C185.119 27.5703 185.236 28.3711 185.367 28.957C185.51 29.543 185.673 29.9531 185.855 30.1875C186.037 30.4089 186.246 30.5195 186.48 30.5195ZM187.007 6.47656C187.007 6.20312 186.975 5.98828 186.91 5.83203C186.845 5.67578 186.74 5.59766 186.597 5.59766C186.454 5.59766 186.311 5.79948 186.167 6.20312C186.024 6.60677 185.881 7.15365 185.738 7.84375C185.608 8.53385 185.484 9.33464 185.367 10.2461C185.263 11.1576 185.165 12.1276 185.074 13.1562C184.983 14.1719 184.911 15.2135 184.859 16.2812C184.807 17.349 184.774 18.3776 184.761 19.3672C185.074 18.2214 185.36 17.0495 185.621 15.8516C185.894 14.6406 186.135 13.4688 186.343 12.3359C186.552 11.2031 186.714 10.1354 186.832 9.13281C186.949 8.11719 187.007 7.23177 187.007 6.47656Z" fill="white"/>
</svg>
